<svg width="22" height="23" viewBox="0 0 26 25" fill="none" xmlns="http://www.w3.org/2000/svg">
<path d="M20.7071 12.7071C21.0976 12.3166 21.0976 11.6834 20.7071 11.2929L14.3431 4.92893C13.9526 4.53841 13.3195 4.53841 12.9289 4.92893C12.5384 5.31946 12.5384 5.95262 12.9289 6.34315L18.5858 12L12.9289 17.6569C12.5384 18.0474 12.5384 18.6805 12.9289 19.0711C13.3195 19.4616 13.9526 19.4616 14.3431 19.0711L20.7071 12.7071ZM5 13H20V11H5V13Z" fill="white"/>
<path d="M25 12.5C25 18.8147 19.6647 24 13 24C6.33525 24 1 18.8147 1 12.5C1 6.18533 6.33525 1 13 1C19.6647 1 25 6.18533 25 12.5Z" stroke="white" stroke-width="2"/>
</svg>
