<svg width="26" height="25" viewBox="0 0 26 25" fill="none" xmlns="http://www.w3.org/2000/svg">
<path d="M26 12.5C26 19.4036 20.1797 25 13 25C5.8203 25 0 19.4036 0 12.5C0 5.59644 5.8203 0 13 0C20.1797 0 26 5.59644 26 12.5Z" fill="#1D2023"/>
<path d="M26 12.5C26 19.4036 20.1797 25 13 25C5.8203 25 0 19.4036 0 12.5C0 5.59644 5.8203 0 13 0C20.1797 0 26 5.59644 26 12.5Z" stroke="white"/>
<path d="M5.29289 11.2929C4.90237 11.6834 4.90237 12.3166 5.29289 12.7071L11.6569 19.0711C12.0474 19.4616 12.6805 19.4616 13.0711 19.0711C13.4616 18.6805 13.4616 18.0474 13.0711 17.6569L7.41421 12L13.0711 6.34315C13.4616 5.95262 13.4616 5.31946 13.0711 4.92893C12.6805 4.53841 12.0474 4.53841 11.6569 4.92893L5.29289 11.2929ZM20.5 11H6V13H20.5V11Z" fill="white"/>
</svg>
